<?xml version="1.0" standalone="no"?>
<!DOCTYPE svg PUBLIC "-//W3C//DTD SVG 20010904//EN"
 "http://www.w3.org/TR/2001/REC-SVG-20010904/DTD/svg10.dtd">
<svg version="1.0" xmlns="http://www.w3.org/2000/svg"
 width="85.000000pt" height="85.000000pt" viewBox="0 0 85.000000 85.000000"
 preserveAspectRatio="xMidYMid meet">

<g transform="translate(0.000000,85.000000) scale(0.100000,-0.100000)"
fill="#000000" stroke="none">
<path d="M262 825 c-121 -27 -195 -92 -228 -199 -9 -28 -18 -103 -21 -166 -11
-246 54 -377 211 -426 28 -9 103 -18 166 -21 246 -11 377 54 426 211 9 28 18
103 21 166 11 246 -54 377 -211 426 -72 23 -283 28 -364 9z m274 -173 c106
-55 161 -170 134 -280 -35 -149 -199 -232 -338 -172 -210 91 -197 395 20 466
55 18 134 11 184 -14z"/>
<path d="M407 594 c-4 -4 -7 -44 -7 -89 l0 -81 54 -53 c50 -49 76 -59 76 -27
0 6 -18 29 -40 51 -39 38 -39 40 -42 119 -2 63 -6 81 -18 84 -9 1 -19 0 -23
-4z"/>
</g>
</svg>
