<?xml version="1.0" standalone="no"?>
<!DOCTYPE svg PUBLIC "-//W3C//DTD SVG 20010904//EN"
 "http://www.w3.org/TR/2001/REC-SVG-20010904/DTD/svg10.dtd">
<svg version="1.0" xmlns="http://www.w3.org/2000/svg"
 width="225.000000pt" height="225.000000pt" viewBox="0 0 225.000000 225.000000"
 preserveAspectRatio="xMidYMid meet">

<g transform="translate(0.000000,225.000000) scale(0.100000,-0.100000)"
fill="#000000" stroke="none">
<path d="M1118 1903 c7 -3 16 -2 19 1 4 3 -2 6 -13 5 -11 0 -14 -3 -6 -6z"/>
<path d="M1013 1893 c9 -2 25 -2 35 0 9 3 1 5 -18 5 -19 0 -27 -2 -17 -5z"/>
<path d="M1190 1896 c0 -2 14 -6 30 -8 17 -3 30 -1 30 4 0 4 -13 8 -30 8 -16
0 -30 -2 -30 -4z"/>
<path d="M958 1883 c6 -2 18 -2 25 0 6 3 1 5 -13 5 -14 0 -19 -2 -12 -5z"/>
<path d="M1278 1883 c7 -3 16 -2 19 1 4 3 -2 6 -13 5 -11 0 -14 -3 -6 -6z"/>
<path d="M918 1873 c7 -3 16 -2 19 1 4 3 -2 6 -13 5 -11 0 -14 -3 -6 -6z"/>
<path d="M1310 1876 c0 -2 7 -6 15 -10 8 -3 15 -1 15 4 0 6 -7 10 -15 10 -8 0
-15 -2 -15 -4z"/>
<path d="M828 1846 c-157 -64 -301 -190 -377 -328 -32 -58 -20 -45 29 30 22
34 44 62 50 62 5 0 10 6 10 13 0 19 35 49 45 40 4 -5 5 -3 1 4 -9 16 91 95
174 136 35 18 67 32 70 33 3 0 18 6 33 12 16 7 33 9 39 6 7 -4 8 -2 4 4 -9 16
-12 15 -78 -12z"/>
<path d="M1418 1843 c6 -2 10 -9 7 -14 -4 -5 1 -6 9 -3 9 3 16 1 16 -5 0 -6 3
-10 8 -10 19 3 33 -2 27 -10 -3 -5 0 -13 6 -17 8 -4 9 -3 5 4 -9 15 -1 15 25
2 10 -6 19 -8 19 -5 0 6 -117 65 -127 64 -4 0 -2 -3 5 -6z"/>
<path d="M1083 1773 c20 -2 54 -2 75 0 20 2 3 4 -38 4 -41 0 -58 -2 -37 -4z"/>
<path d="M1209 1767 c5 -5 19 -7 32 -5 20 3 19 5 -9 9 -20 3 -29 2 -23 -4z"/>
<path d="M1579 1751 c34 -31 47 -39 36 -21 -3 5 -20 19 -38 31 l-32 21 34 -31z"/>
<path d="M1003 1763 c9 -2 23 -2 30 0 6 3 -1 5 -18 5 -16 0 -22 -2 -12 -5z"/>
<path d="M1270 1760 c0 -6 7 -10 15 -10 8 0 15 2 15 4 0 2 -7 6 -15 10 -8 3
-15 1 -15 -4z"/>
<path d="M958 1753 c7 -3 16 -2 19 1 4 3 -2 6 -13 5 -11 0 -14 -3 -6 -6z"/>
<path d="M890 1735 c-33 -19 -21 -19 21 0 19 8 27 14 19 14 -8 0 -26 -6 -40
-14z"/>
<path d="M1350 1730 c20 -13 33 -13 25 0 -3 6 -14 10 -23 10 -15 0 -15 -2 -2
-10z"/>
<path d="M1102 1718 c-13 -13 -17 -155 -4 -175 4 -7 16 -11 27 -9 18 3 20 12
23 97 2 69 0 91 -8 83 -7 -7 -10 -42 -8 -92 2 -58 0 -78 -9 -75 -17 7 -22 163
-5 163 6 0 12 5 12 10 0 14 -13 13 -28 -2z"/>
<path d="M835 1710 c-3 -6 1 -7 9 -4 18 7 21 14 7 14 -6 0 -13 -4 -16 -10z"/>
<path d="M1410 1711 c0 -5 7 -12 16 -15 14 -5 15 -4 4 9 -14 17 -20 19 -20 6z"/>
<path d="M1663 1684 c27 -29 35 -43 25 -47 -7 -3 -3 -4 10 -4 12 1 22 2 22 2
0 0 -21 21 -47 45 l-48 45 38 -41z"/>
<path d="M795 1689 c-4 -6 -14 -8 -22 -5 -8 3 -11 1 -8 -4 3 -5 -5 -15 -19
-22 -14 -6 -26 -15 -26 -20 0 -4 -6 -8 -12 -9 -14 0 -102 -103 -133 -154 -25
-40 -8 -23 44 47 43 57 91 101 166 151 22 15 34 27 28 27 -7 0 -15 -5 -18 -11z"/>
<path d="M1470 1673 c13 -10 52 -40 85 -67 33 -27 52 -41 42 -30 -9 12 -14 24
-10 29 5 4 3 6 -2 2 -6 -3 -31 10 -55 30 -25 19 -54 39 -65 44 -13 6 -11 3 5
-8z"/>
<path d="M1729 1609 c6 -9 7 -20 3 -25 -4 -5 -3 -6 2 -2 12 10 47 -42 92 -134
19 -40 32 -62 28 -48 -11 42 -73 155 -105 191 -17 19 -26 27 -20 18z"/>
<path d="M1647 1503 c20 -27 49 -75 64 -108 30 -64 36 -69 17 -14 -14 40 -97
169 -109 169 -5 0 8 -21 28 -47z"/>
<path d="M1100 1470 c0 -5 11 -10 25 -10 14 0 25 5 25 10 0 6 -11 10 -25 10
-14 0 -25 -4 -25 -10z"/>
<path d="M412 1445 c-15 -32 -15 -35 -2 -35 6 0 9 3 8 8 0 4 2 15 7 25 4 10 5
20 3 22 -3 3 -10 -6 -16 -20z"/>
<path d="M540 1419 c-7 -11 -10 -23 -7 -25 2 -2 9 7 15 21 14 30 7 33 -8 4z"/>
<path d="M507 1351 c-8 -16 -12 -32 -9 -36 3 -3 12 9 19 26 17 41 10 49 -10
10z"/>
<path d="M376 1344 c-4 -14 -5 -28 -3 -31 3 -2 8 8 11 23 4 14 5 28 3 31 -3 2
-8 -8 -11 -23z"/>
<path d="M1860 1361 c0 -7 -5 -9 -12 -5 -7 5 -8 3 -3 -5 5 -9 10 -10 18 -2 6
6 8 14 4 18 -4 3 -7 1 -7 -6z"/>
<path d="M1871 1324 c0 -11 3 -14 6 -6 3 7 2 16 -1 19 -3 4 -6 -2 -5 -13z"/>
<path d="M487 1289 c4 -13 8 -18 11 -10 2 7 -1 18 -6 23 -8 8 -9 4 -5 -13z"/>
<path d="M360 1280 c0 -11 2 -20 4 -20 2 0 6 9 9 20 3 11 1 20 -4 20 -5 0 -9
-9 -9 -20z"/>
<path d="M1751 1284 c0 -11 3 -14 6 -6 3 7 2 16 -1 19 -3 4 -6 -2 -5 -13z"/>
<path d="M1881 1284 c0 -11 3 -14 6 -6 3 7 2 16 -1 19 -3 4 -6 -2 -5 -13z"/>
<path d="M1761 1236 c-1 -16 0 -27 2 -25 1 2 9 13 17 23 8 11 10 17 3 13 -6
-4 -14 -1 -16 5 -3 7 -6 0 -6 -16z"/>
<path d="M352 1220 c0 -19 2 -27 5 -17 2 9 2 25 0 35 -3 9 -5 1 -5 -18z"/>
<path d="M477 1231 c-4 -17 -3 -21 5 -13 5 5 8 16 6 23 -3 8 -7 3 -11 -10z"/>
<path d="M1887 1243 c-2 -5 -1 -19 4 -33 7 -23 7 -23 8 8 1 31 -3 40 -12 25z"/>
<path d="M473 1130 c0 -41 2 -58 4 -37 2 20 2 54 0 75 -2 20 -4 3 -4 -38z"/>
<path d="M1079 1173 c-19 -22 -19 -75 -1 -95 20 -24 74 -23 95 0 33 36 9 120
-29 105 -12 -4 -11 -8 6 -20 37 -26 20 -83 -25 -83 -45 0 -62 57 -25 83 17 12
18 16 6 20 -8 3 -20 -1 -27 -10z m21 3 c0 -2 -8 -10 -17 -17 -16 -13 -17 -12
-4 4 13 16 21 21 21 13z m71 -13 c13 -16 12 -17 -3 -4 -10 7 -18 15 -18 17 0
8 8 3 21 -13z m-80 -80 c13 -16 12 -17 -3 -4 -10 7 -18 15 -18 17 0 8 8 3 21
-13z m89 13 c0 -2 -8 -10 -17 -17 -16 -13 -17 -12 -4 4 13 16 21 21 21 13z"/>
<path d="M1773 1125 c0 -38 2 -53 4 -32 2 20 2 52 0 70 -2 17 -4 1 -4 -38z"/>
<path d="M1543 1152 c-7 -4 -11 -16 -9 -27 3 -18 12 -20 97 -23 69 -2 91 0 83
8 -7 7 -42 10 -92 8 -58 -2 -78 0 -75 9 7 17 163 22 163 6 0 -7 5 -13 10 -13
14 0 13 13 -2 28 -13 13 -155 17 -175 4z"/>
<path d="M536 1140 c7 -7 42 -10 92 -8 58 2 78 0 75 -9 -7 -17 -163 -22 -163
-5 0 6 -4 12 -10 12 -14 0 -13 -13 2 -28 15 -15 168 -17 168 -1 0 5 5 7 10 4
6 -4 9 3 7 17 -4 22 -8 23 -98 26 -69 2 -91 0 -83 -8z"/>
<path d="M813 1134 c-3 -8 -1 -20 6 -27 8 -8 11 -4 11 16 0 30 -7 35 -17 11z"/>
<path d="M352 1030 c0 -19 2 -27 5 -17 2 9 2 25 0 35 -3 9 -5 1 -5 -18z"/>
<path d="M1887 1053 c-2 -5 -1 -19 4 -33 7 -23 7 -23 8 8 1 31 -3 40 -12 25z"/>
<path d="M1761 1020 c-1 -14 -4 -36 -6 -50 l-6 -25 11 25 c6 13 9 36 7 50 l-4
25 -2 -25z"/>
<path d="M482 1010 c0 -14 2 -19 5 -12 2 6 2 18 0 25 -3 6 -5 1 -5 -13z"/>
<path d="M361 964 c0 -11 3 -14 6 -6 3 7 2 16 -1 19 -3 4 -6 -2 -5 -13z"/>
<path d="M491 964 c0 -11 3 -14 6 -6 3 7 2 16 -1 19 -3 4 -6 -2 -5 -13z"/>
<path d="M1876 965 c-3 -8 -1 -15 4 -15 6 0 10 7 10 15 0 8 -2 15 -4 15 -2 0
-6 -7 -10 -15z"/>
<path d="M371 924 c0 -11 3 -14 6 -6 3 7 2 16 -1 19 -3 4 -6 -2 -5 -13z"/>
<path d="M495 930 c-3 -5 -1 -10 4 -10 6 0 11 5 11 10 0 6 -2 10 -4 10 -3 0
-8 -4 -11 -10z"/>
<path d="M1732 908 c-15 -41 -11 -44 10 -8 9 16 13 32 9 34 -4 3 -12 -9 -19
-26z"/>
<path d="M1871 932 c-1 -8 -6 -10 -13 -6 -10 5 -10 4 -1 -6 15 -16 28 -8 20
12 -4 11 -6 11 -6 0z"/>
<path d="M512 890 c7 -10 14 -18 15 -16 6 6 -9 36 -18 36 -5 0 -4 -9 3 -20z"/>
<path d="M530 851 c0 -6 4 -13 10 -16 6 -3 7 1 4 9 -7 18 -14 21 -14 7z"/>
<path d="M400 837 c-1 -28 110 -207 129 -207 5 0 -3 13 -19 30 -15 16 -46 64
-68 107 -23 43 -42 74 -42 70z"/>
<path d="M1816 784 c-14 -31 -42 -80 -62 -108 -31 -45 -31 -47 -5 -17 33 38
106 169 98 177 -3 3 -17 -20 -31 -52z"/>
<path d="M566 785 c5 -11 21 -33 37 -50 l29 -30 -28 40 c-39 55 -47 64 -38 40z"/>
<path d="M1670 779 c-7 -11 -37 -51 -68 -87 -30 -37 -45 -58 -31 -47 13 11 28
27 33 35 5 8 22 27 37 43 15 15 25 27 23 27 -2 0 3 11 12 25 9 14 14 25 11 25
-4 0 -11 -9 -17 -21z"/>
<path d="M1105 711 c-10 -10 -5 -182 5 -176 6 3 10 42 10 86 0 46 4 79 10 79
15 0 13 -157 -2 -163 -7 -2 -10 -8 -6 -12 4 -4 14 -2 23 5 18 15 22 170 4 170
-5 0 -8 4 -5 8 5 8 -32 11 -39 3z"/>
<path d="M663 664 c15 -17 24 -34 20 -39 -5 -4 -3 -5 4 -1 7 3 35 -11 65 -34
29 -22 57 -40 63 -40 5 0 -8 12 -30 27 -22 14 -65 46 -95 71 -34 29 -45 34
-27 16z"/>
<path d="M1493 597 c-30 -21 -40 -34 -33 -42 5 -7 6 -16 2 -20 -4 -5 -1 -5 6
-1 9 5 10 12 3 20 -12 15 24 40 42 30 7 -4 9 -3 4 1 -4 5 0 17 10 27 22 25 15
22 -34 -15z"/>
<path d="M569 578 c24 -26 65 -61 90 -78 40 -27 41 -27 11 -3 -19 15 -60 50
-90 78 l-55 49 44 -46z"/>
<path d="M1705 610 c-4 -6 -12 -7 -18 -4 -7 4 -9 3 -4 -1 4 -5 -7 -24 -25 -42
-17 -18 -30 -33 -27 -33 3 0 25 20 49 45 24 25 41 45 38 45 -4 0 -10 -5 -13
-10z"/>
<path d="M830 540 c0 -6 7 -10 15 -10 8 0 15 2 15 4 0 2 -7 6 -15 10 -8 3 -15
1 -15 -4z"/>
<path d="M880 520 c8 -5 20 -10 25 -10 6 0 3 5 -5 10 -8 5 -19 10 -25 10 -5 0
-3 -5 5 -10z"/>
<path d="M1335 515 c-16 -8 -23 -14 -15 -14 8 0 26 6 40 14 32 18 15 18 -25 0z"/>
<path d="M1564 492 c-29 -21 -60 -43 -70 -50 -11 -7 0 -3 24 10 38 19 115 78
102 77 -3 -1 -28 -17 -56 -37z"/>
<path d="M925 500 c3 -5 8 -10 11 -10 2 0 4 5 4 10 0 6 -5 10 -11 10 -5 0 -7
-4 -4 -10z"/>
<path d="M958 493 c7 -3 16 -2 19 1 4 3 -2 6 -13 5 -11 0 -14 -3 -6 -6z"/>
<path d="M1278 493 c7 -3 16 -2 19 1 4 3 -2 6 -13 5 -11 0 -14 -3 -6 -6z"/>
<path d="M1003 483 c9 -2 23 -2 30 0 6 3 -1 5 -18 5 -16 0 -22 -2 -12 -5z"/>
<path d="M1223 483 c9 -2 23 -2 30 0 6 3 -1 5 -18 5 -16 0 -22 -2 -12 -5z"/>
<path d="M1063 474 c7 -8 118 -6 125 1 3 3 -25 5 -63 5 -38 0 -65 -3 -62 -6z"/>
<path d="M710 463 c0 -1 15 -10 33 -18 23 -11 27 -12 15 -2 -10 8 -16 16 -13
18 2 3 -5 5 -15 5 -11 0 -20 -1 -20 -3z"/>
<path d="M800 415 c14 -8 30 -14 35 -14 6 0 -1 6 -15 14 -14 8 -29 14 -35 14
-5 0 1 -6 15 -14z"/>
<path d="M1426 415 c-25 -19 -9 -19 24 0 14 8 19 14 10 14 -8 0 -24 -6 -34
-14z"/>
<path d="M889 388 c-11 -8 -11 -9 3 -5 9 3 18 1 20 -5 2 -6 9 -9 16 -7 8 3 6
8 -6 16 -13 7 -23 8 -33 1z"/>
<path d="M1318 373 c7 -3 16 -2 19 1 4 3 -2 6 -13 5 -11 0 -14 -3 -6 -6z"/>
<path d="M958 363 c6 -2 18 -2 25 0 6 3 1 5 -13 5 -14 0 -19 -2 -12 -5z"/>
<path d="M1189 357 c5 -5 21 -7 37 -5 27 3 26 4 -8 9 -22 3 -34 1 -29 -4z"/>
<path d="M1268 363 c6 -2 18 -2 25 0 6 3 1 5 -13 5 -14 0 -19 -2 -12 -5z"/>
<path d="M1018 353 c12 -2 30 -2 40 0 9 3 -1 5 -23 4 -22 0 -30 -2 -17 -4z"/>
</g>
</svg>
